<svg width="900" height="450" viewBox="0 0 900 450" fill="none" xmlns="http://www.w3.org/2000/svg">
<g clip-path="url(#clip0_118_26)">
<path d="M900 0H0V450H900V0Z" fill="#002233"/>
<path d="M0 338.25L21.5 337.875C43 337.5 86 336.75 128.8 339.375C171.7 342 214.3 348 257.2 355.5C300 363 343 372 385.8 373.875C428.7 375.75 471.3 370.5 514.2 371.85C557 373.275 600 381.225 642.8 384.9C685.7 388.5 728.3 387.75 771.2 385.65C814 383.475 857 380.025 878.5 378.225L900 376.5V450.75H878.5C857 450.75 814 450.75 771.2 450.75C728.3 450.75 685.7 450.75 642.8 450.75C600 450.75 557 450.75 514.2 450.75C471.3 450.75 428.7 450.75 385.8 450.75C343 450.75 300 450.75 257.2 450.75C214.3 450.75 171.7 450.75 128.8 450.75C86 450.75 43 450.75 21.5 450.75H0V338.25Z" fill="#00AFCC"/>
</g>
<defs>
<clipPath id="clip0_118_26">
<rect width="900" height="450" fill="white"/>
</clipPath>
</defs>
</svg>
